Coordinates
version=1
nRows=5
nColumns=63
inDegrees=yes

Units are S.I. units (second, meters, Newtons, ...)
If the header above contains a line with 'inDegrees', this indicates whether rotational values are in degrees (yes) or radians (no).

endheader
time	pelvis_tilt	pelvis_list	pelvis_rotation	pelvis_tx	pelvis_ty	pelvis_tz	hip_flexion_r	hip_adduction_r	hip_rotation_r	knee_angle_r	knee_angle_r_beta	ankle_angle_r	subtalar_angle_r	mtp_angle_r	hip_flexion_l	hip_adduction_l	hip_rotation_l	knee_angle_l	knee_angle_l_beta	ankle_angle_l	subtalar_angle_l	mtp_angle_l	L5_S1_Flex_Ext	L5_S1_Lat_Bending	L5_S1_axial_rotation	L4_L5_Flex_Ext	L4_L5_Lat_Bending	L4_L5_axial_rotation	L3_L4_Flex_Ext	L3_L4_Lat_Bending	L3_L4_axial_rotation	L2_L3_Flex_Ext	L2_L3_Lat_Bending	L2_L3_axial_rotation	L1_L2_Flex_Ext	L1_L2_Lat_Bending	L1_L2_axial_rotation	L1_T12_Flex_Ext	L1_T12_Lat_Bending	L1_T12_axial_rotation	Abs_r3	Abs_r2	Abs_r1	Abs_t1	Abs_t2	neck_flexion	neck_bending	neck_rotation	arm_flex_r	arm_add_r	arm_rot_r	elbow_flex_r	pro_sup_r	wrist_flex_r	wrist_dev_r	arm_flex_l	arm_add_l	arm_rot_l	elbow_flex_l	pro_sup_l	wrist_flex_l	wrist_dev_l
      2.32142857	     -3.81526829	     -5.50625737	     84.79905165	      0.23490332	      0.83673000	      0.70997913	      0.66691848	     -3.13587201	     -1.64118659	      3.34449841	      0.05837251	     19.37675556	     -0.82822978	      0.00000000	     -0.21001221	      1.71232451	      0.21144091	      0.57116978	      0.00996879	     23.31600579	      3.49716335	      0.00000000	      0.02326290	     -0.26109822	      1.52878411	      0.04320153	     -0.34726063	      1.62433312	      0.03821862	     -0.63483421	      1.62433312	      0.02658717	     -0.63483421	      1.33768610	      0.02160193	     -0.53243149	      1.24213709	      0.01329242	     -0.40444114	      1.14658808	      0.16616457	     -2.95359528	      8.50263859	      0.00000000	      0.00000000	     25.75614088	     -2.31779293	    -11.38589410	      1.85072335	     -6.75531804	     40.25603659	     43.54317138	     50.49714866	     -3.02967790	      0.54868790	     10.59633426	     -6.45474317	     46.94660816	     38.86038461	     76.17276750	     17.93938617	     13.94390218
      2.33928571	     -3.84248753	     -5.53138458	     84.75495906	      0.23476009	      0.83667098	      0.70977464	      0.65338273	     -3.16638774	     -1.72078476	      3.41447743	      0.05959387	     19.24937011	     -0.86987794	      0.00000000	     -0.22467446	      1.74342308	      0.29166241	      0.60581584	      0.01057348	     23.15824229	      3.54036008	      0.00000000	      0.02511821	     -0.26341021	      1.53652755	      0.04664702	     -0.35033558	      1.63256052	      0.04126670	     -0.64045558	      1.63256052	      0.02870760	     -0.64045558	      1.34446160	      0.02332477	     -0.53714610	      1.24842863	      0.01435254	     -0.40802241	      1.15239566	      0.17941685	     -2.97974897	      8.54570527	      0.00000000	      0.00000000	     25.83268919	     -2.31827148	    -11.39470412	      1.77186972	     -6.81656389	     40.29596011	     43.57449824	     50.49448196	     -3.00655157	      0.61532781	     10.53664231	     -6.44627607	     46.95879835	     38.88273418	     76.12574983	     17.93790786	     13.95313982
      2.35714286	     -3.93496291	     -5.67996085	     85.01784939	      0.23422554	      0.83639330	      0.70983687	      0.77359672	     -3.24281460	     -1.78985105	      3.52924111	      0.06159688	     19.03276238	     -1.58236397	      0.00000000	     -0.08681297	      1.84850550	      1.99330074	      0.58427339	      0.01019749	     22.56303591	      1.64558618	      0.00000000	      0.03081694	     -0.27446565	      1.47793662	      0.05723013	     -0.36503932	      1.57030766	      0.05062915	     -0.66733579	      1.57030766	      0.03522068	     -0.66733579	      1.29319454	      0.02861661	     -0.55969036	      1.20082350	      0.01760880	     -0.42514730	      1.10845246	      0.22012230	     -3.10481037	      8.21984009	      0.00000000	      0.00000000	     26.15338722	     -2.41735846	    -11.63375626	      1.60076677	     -6.81728872	     39.09593428	     44.15976076	     50.83568237	     -2.24730908	      3.42157601	     10.46343344	     -6.56296777	     46.98846183	     39.17551598	     74.70765307	     17.57790800	     14.72535546
      2.37500000	     -4.00564492	     -5.78554721	     84.85095143	      0.23427593	      0.83617432	      0.70965410	      0.85784238	     -3.28678521	     -1.16398395	      3.55999712	      0.06213367	     18.69547218	     -2.54676460	      0.00000000	     -0.00887620	      1.89837984	      0.22660360	      0.62153962	      0.01084791	     22.74621667	      4.06532269	      0.00000000	      0.03486192	     -0.28157397	      1.45788501	      0.06474208	     -0.37449338	      1.54900282	      0.05727465	     -0.68461894	      1.54900282	      0.03984369	     -0.68461894	      1.27564938	      0.03237278	     -0.57418563	      1.18453157	      0.01992010	     -0.43615807	      1.09341376	      0.24901523	     -3.18522102	      8.10831906	      0.00000000	      0.00000000	     26.40543195	     -2.45360811	    -11.76274377	      1.63058941	     -6.78546740	     38.47060710	     44.52403481	     51.40520908	     -1.81911373	      5.08153575	     10.11267462	     -6.57937453	     45.84976765	     39.46980937	     75.88560912	     17.88821565	     14.82674137
      2.39285714	     -4.00119199	     -5.95291669	     85.24595180	      0.23365178	      0.83587244	      0.70940865	      0.93124932	     -3.26971684	     -1.41428847	      3.59155222	      0.06268441	     18.44976402	     -3.04913249	      0.00000000	      0.11961177	      1.92376135	      4.33590477	      0.57576834	      0.01004905	     21.71594340	     -1.04411530	      0.00000000	      0.04468130	     -0.28017258	      1.32581711	      0.08297765	     -0.37262953	      1.40868067	      0.07340691	     -0.68121162	      1.40868067	      0.05106626	     -0.68121162	      1.16008997	      0.04149106	     -0.57132793	      1.07722640	      0.02553090	     -0.43398733	      0.99436283	      0.31915407	     -3.16936829	      7.37379699	      0.00000000	      0.00000000	     26.67606868	     -2.49225430	    -12.01228558	      1.76120186	     -6.83160612	     38.30627486	     44.93267222	     51.41019794	     -1.72553198	      6.15869068	      9.76620461	     -6.73190482	     45.07035583	     39.99446369	     76.56858012	     17.61144324	     14.94901787
